<?xml version="1.0" standalone="no"?>
<!DOCTYPE svg PUBLIC "-//W3C//DTD SVG 20010904//EN"
 "http://www.w3.org/TR/2001/REC-SVG-20010904/DTD/svg10.dtd">
<svg version="1.0" xmlns="http://www.w3.org/2000/svg"
 width="500.000000pt" height="500.000000pt" viewBox="0 0 500.000000 500.000000"
 preserveAspectRatio="xMidYMid meet">

<g transform="translate(0.000000,500.000000) scale(0.100000,-0.100000)"
fill="#000000" stroke="none">
<path d="M1488 4652 l-227 -237 0 -475 0 -475 210 -215 211 -215 -211 -3 -211
-2 0 -348 0 -347 228 -228 227 -227 786 0 787 0 226 231 226 230 0 497 0 497
-195 195 c-107 107 -195 198 -195 202 0 5 88 8 195 8 l195 0 0 338 -1 337
-232 238 -232 238 -780 -1 -780 0 -227 -238z m1852 21 c58 -60 149 -154 203
-209 l97 -102 -2 -258 -3 -259 -292 -3 -293 -2 0 -80 0 -80 103 -1 102 -1 193
-199 192 -198 0 -447 -1 -446 -201 -204 -201 -204 -736 0 -736 0 -202 202
-203 203 0 267 0 268 280 0 280 0 0 95 0 95 -82 0 -83 0 -197 204 -198 204 0
424 1 423 197 207 197 207 740 0 740 1 105 -107z"/>
<path d="M1601 4533 l-180 -188 -1 -405 0 -405 183 -183 182 -182 84 0 83 0
83 60 83 60 370 0 369 0 94 -68 94 -68 3 -132 c2 -113 0 -132 -13 -132 -11 0
-15 -11 -15 -45 0 -33 4 -45 15 -45 13 0 15 -22 15 -140 l0 -139 -92 -66 -91
-65 -376 0 -376 0 -98 71 -97 71 0 169 0 169 -250 0 -250 0 0 -230 0 -230 181
-185 182 -185 716 0 716 0 183 189 182 189 0 419 0 419 -176 182 -176 182 -89
0 -89 0 0 -40 0 -40 -142 0 -143 0 -50 40 -50 40 -217 0 -218 0 0 -40 0 -40
-155 0 -155 0 0 405 0 405 149 0 148 0 51 -40 50 -40 216 0 216 0 0 40 0 40
150 0 150 0 0 -225 0 -225 265 0 265 0 0 220 0 221 -182 189 -183 190 -716 0
-717 0 -181 -187z"/>
<path d="M1980 3945 l0 -345 95 0 95 0 2 235 3 236 312 -241 313 -240 95 0 95
0 0 350 0 350 -90 0 -90 0 0 -235 c0 -129 -3 -235 -7 -235 -5 1 -143 106 -307
235 l-299 235 -109 0 -108 0 0 -345z"/>
<path d="M2406 4202 c35 -31 333 -262 338 -262 3 0 6 61 6 135 l0 135 -177 0
c-97 0 -173 -4 -167 -8z"/>
<path d="M2230 3816 l0 -136 178 0 c169 1 176 1 156 18 -49 39 -310 239 -321
246 -10 6 -13 -23 -13 -128z"/>
<path d="M2058 3174 l-78 -55 0 -279 0 -278 75 -56 74 -56 361 0 360 0 70 51
70 51 0 94 0 94 -90 0 -90 0 0 -50 0 -50 -320 0 -320 0 0 200 0 200 320 0 320
0 0 -45 0 -45 90 0 91 0 -3 87 -3 88 -74 52 -73 53 -352 0 -351 -1 -77 -55z"/>
<path d="M2230 2845 l0 -145 260 0 260 0 0 50 0 50 105 0 105 0 0 45 0 45
-105 0 -105 0 0 50 0 50 -260 0 -260 0 0 -145z"/>
<path d="M1402 1770 c-70 -10 -124 -47 -151 -104 -41 -84 -50 -350 -15 -473
28 -103 104 -153 228 -153 132 1 204 72 206 203 l0 47 -70 0 -70 0 0 -40 c0
-81 -44 -123 -103 -101 -40 16 -58 67 -64 190 -8 148 3 252 31 293 43 65 126
42 126 -33 0 -54 7 -59 82 -59 l70 0 -7 57 c-8 69 -24 102 -65 136 -27 23 -47
30 -125 41 -11 2 -44 0 -73 -4z"/>
<path d="M2153 1770 c-106 -16 -163 -80 -163 -185 0 -98 46 -158 174 -230 110
-61 150 -127 111 -182 -19 -28 -68 -38 -106 -23 -28 12 -49 55 -49 103 0 14
-10 17 -70 17 l-70 0 0 -48 c0 -68 34 -132 85 -157 54 -27 166 -32 238 -11 69
20 111 64 126 135 26 122 -23 199 -180 283 -78 41 -113 79 -113 123 0 47 28
75 74 75 39 0 70 -23 70 -52 0 -42 10 -48 82 -48 l70 0 -7 48 c-8 53 -18 77
-48 109 -35 38 -131 57 -224 43z"/>
<path d="M560 1405 l0 -356 68 3 67 3 1 253 c1 139 3 255 6 257 2 2 47 -112
99 -253 l96 -257 96 -3 97 -3 0 356 0 355 -65 0 -65 0 0 -247 c0 -135 -3 -243
-7 -239 -5 4 -49 114 -99 244 l-90 237 -102 3 -102 3 0 -356z"/>
<path d="M2490 1705 l0 -55 85 0 85 0 0 -300 0 -300 70 0 70 0 0 300 0 300 85
0 85 0 0 55 0 55 -240 0 -240 0 0 -55z"/>
<path d="M3127 1753 c-3 -4 -35 -118 -72 -253 -61 -222 -106 -385 -121 -433
-5 -16 1 -18 67 -15 l73 3 19 78 19 78 106 -3 106 -3 19 -77 19 -78 74 0 c53
0 74 4 74 13 -1 6 -43 165 -94 352 l-92 340 -96 3 c-53 1 -98 -1 -101 -5z
m112 -203 c13 -67 36 -165 46 -202 l7 -28 -71 0 c-55 0 -71 3 -71 14 0 15 46
237 56 270 9 27 20 8 33 -54z"/>
<path d="M3470 1705 l0 -55 85 0 85 0 0 -300 0 -301 73 3 72 3 3 298 2 297 80
0 80 0 0 55 0 55 -240 0 -240 0 0 -55z"/>
<path d="M4030 1405 l0 -355 195 0 195 0 0 55 0 55 -125 0 -125 0 0 105 0 105
116 0 115 0 -3 53 -3 52 -112 3 -113 3 0 89 0 90 120 0 120 0 0 50 0 50 -190
0 -190 0 0 -355z"/>
<path d="M3167 816 c-50 -19 -64 -31 -78 -73 -16 -50 -6 -119 22 -150 13 -14
61 -49 106 -79 96 -62 118 -91 117 -151 -2 -77 -69 -119 -149 -93 -40 13 -65
52 -65 100 0 26 -4 30 -26 30 -26 0 -26 -2 -22 -45 10 -86 63 -129 158 -129
102 0 150 47 150 146 0 77 -23 107 -138 182 -55 35 -102 72 -106 81 -3 9 -6
36 -6 60 0 61 24 86 86 92 43 4 55 2 78 -19 15 -13 31 -39 35 -58 5 -26 13
-36 29 -38 18 -3 22 1 22 23 0 39 -25 91 -53 110 -35 22 -114 28 -160 11z"/>
<path d="M560 598 c0 -237 6 -280 45 -327 52 -61 185 -63 247 -4 41 39 50 100
46 338 -3 202 -4 210 -23 210 -19 0 -20 -8 -25 -240 -4 -212 -7 -243 -24 -267
-44 -66 -160 -58 -197 12 -17 31 -19 60 -19 267 l0 233 -25 0 -25 0 0 -222z"/>
<path d="M1060 531 c0 -284 0 -291 20 -291 19 0 20 7 20 255 0 140 3 255 8
255 4 0 20 -31 37 -68 16 -37 52 -116 80 -177 28 -60 66 -145 85 -187 35 -76
35 -77 73 -78 l37 0 0 290 c0 283 0 290 -20 290 -19 0 -20 -7 -20 -255 0 -140
-3 -255 -7 -255 -5 0 -60 114 -123 253 l-116 252 -37 3 -37 3 0 -290z"/>
<path d="M1597 814 c-4 -4 -7 -135 -7 -291 l0 -283 25 0 25 0 -2 287 c-3 250
-5 288 -18 291 -9 1 -19 0 -23 -4z"/>
<path d="M1775 738 c12 -46 49 -176 80 -290 l58 -208 32 0 33 0 32 118 c17 64
51 188 76 274 24 86 44 164 44 172 0 9 -8 16 -18 16 -15 0 -28 -35 -76 -207
-32 -115 -64 -232 -73 -261 -14 -49 -32 -62 -34 -24 0 9 -28 123 -63 252 -60
228 -63 235 -88 238 l-26 3 23 -83z"/>
<path d="M2250 530 l0 -290 130 0 c109 0 130 2 130 15 0 12 -18 15 -105 15
l-105 0 0 125 0 125 100 0 c82 0 100 3 100 15 0 12 -18 15 -100 15 l-100 0 0
115 0 115 106 0 c95 0 105 2 102 18 -3 15 -19 17 -131 20 l-127 3 0 -291z"/>
<path d="M2640 531 l0 -291 25 0 25 0 0 140 0 140 66 0 c36 0 74 -5 86 -11 33
-18 48 -70 48 -174 0 -93 1 -95 23 -95 23 0 23 0 19 113 -4 121 -15 157 -50
172 -28 12 -28 18 1 30 71 32 75 208 5 246 -13 7 -72 15 -135 17 l-113 5 0
-292z m231 220 c13 -16 19 -39 19 -72 0 -94 -29 -119 -135 -119 l-65 0 0 111
0 111 81 -4 c70 -3 83 -6 100 -27z"/>
<path d="M3537 814 c-3 -4 -6 -134 -7 -290 l0 -284 25 0 25 0 0 290 c0 275 -1
290 -18 290 -10 0 -21 -3 -25 -6z"/>
<path d="M3700 800 c0 -18 7 -20 70 -20 l70 0 0 -270 0 -270 25 0 25 0 0 270
0 270 70 0 c63 0 70 2 70 20 0 19 -7 20 -165 20 -158 0 -165 -1 -165 -20z"/>
<path d="M4100 815 c0 -3 36 -80 80 -172 l80 -166 0 -119 0 -118 25 0 25 0 0
121 0 120 80 166 c44 91 80 167 80 169 0 2 -9 4 -21 4 -16 0 -34 -28 -91 -146
-39 -80 -73 -142 -77 -137 -7 8 -90 185 -116 248 -12 27 -21 35 -40 35 -14 0
-25 -2 -25 -5z"/>
</g>
</svg>
